<svg id="Capa_1" enable-background="new 0 0 512 512" height="512" viewBox="0 0 512 512" width="512" xmlns="http://www.w3.org/2000/svg"><g><g clip-rule="evenodd" fill-rule="evenodd"><path d="m22.705 71.98h266.845c12.5 0 22.705 10.204 22.705 22.705v371.299c0 12.5-10.204 22.705-22.705 22.705h-266.845c-12.472 0-22.705-10.205-22.705-22.705v-371.299c0-12.5 10.233-22.705 22.705-22.705z" fill="#f9f7f8"/><path d="m264.55 71.98h25c12.5 0 22.705 10.204 22.705 22.705v371.299c0 12.5-10.204 22.705-22.705 22.705h-25c12.5 0 22.705-10.205 22.705-22.705v-371.299c-.001-12.5-10.205-22.705-22.705-22.705z" fill="#ebe8fa"/><path d="m87.475 47.631h19.559c6.406 0 7.568-2.861 9.326-7.851 3.345-9.524 12.387-16.47 23.017-16.47h33.504c10.686 0 19.813 6.945 23.045 16.555 1.729 5.103 2.948 7.766 9.297 7.766h19.559c13.379 0 24.349 10.97 24.349 24.35 0 13.379-10.97 24.32-24.349 24.32h-137.307c-13.379 0-24.32-10.941-24.32-24.32-.001-13.38 10.94-24.35 24.32-24.35z" fill="#407093"/><path d="m205.25 47.631h19.53c13.379 0 24.349 10.97 24.349 24.35 0 13.379-10.97 24.32-24.349 24.32h-15.675c8.787-3.883 15.023-13.039 15.023-23.668.001-12.133-8.106-22.365-18.878-25.002z" fill="#365e7d"/><path d="m227.19 169.234c31.775-31.775 83.79-31.775 115.565 0l9.268 9.269c3.742 3.741 7.625 3.713 11.31 0l9.269-9.269c31.775-31.775 83.79-31.775 115.565 0s31.775 83.761 0 115.536c-43.511 43.511-81.182 81.494-124.834 124.834-3.571 3.544-7.71 3.571-11.31 0-41.667-41.242-83.363-83.364-124.833-124.834-31.775-31.775-31.775-83.76 0-115.536z" fill="#f37c7c"/><path d="m417.871 146.359c24.887-3.798 51.221 3.826 70.297 22.875 31.775 31.775 31.775 83.761 0 115.536-43.511 43.511-81.182 81.494-124.834 124.834-3.571 3.544-7.71 3.571-11.31 0-2.296-2.268-4.564-4.535-6.86-6.804 40.789-40.533 76.788-76.815 118.003-118.03 31.775-31.775 31.775-83.761 0-115.536-12.727-12.727-28.686-20.352-45.296-22.875z" fill="#ee6161"/><path d="m47.734 253.732h36.254c4.393 0 7.993 3.6 7.993 7.993v36.255c0 4.394-3.6 7.992-7.993 7.992h-36.254c-4.394 0-7.994-3.599-7.994-7.992v-36.255c.001-4.393 3.6-7.993 7.994-7.993z" fill="#95d6a4" stroke="#95d6a4" stroke-miterlimit="10"/><path d="m47.734 150.412h36.254c4.393 0 7.993 3.6 7.993 7.994v36.225c0 4.422-3.6 8.021-7.993 8.021h-36.254c-4.394 0-7.994-3.6-7.994-8.021v-36.225c.001-4.394 3.6-7.994 7.994-7.994z" fill="#95d6a4" stroke="#95d6a4" stroke-miterlimit="10"/><path d="m47.734 357.08h36.254c4.393 0 7.993 3.601 7.993 7.994v36.225c0 4.394-3.6 7.994-7.993 7.994h-36.254c-4.394 0-7.994-3.601-7.994-7.994v-36.225c.001-4.393 3.6-7.994 7.994-7.994z" fill="#95d6a4" stroke="#95d6a4" stroke-miterlimit="10"/><path d="m58.987 253.732h25.001c4.393 0 7.993 3.6 7.993 7.993v36.255c0 4.394-3.6 7.992-7.993 7.992h-25.001c4.394 0 7.994-3.599 7.994-7.992v-36.255c0-4.393-3.6-7.993-7.994-7.993z" fill="#78c2a4" stroke="#78c2a4" stroke-miterlimit="10"/><path d="m58.987 150.412h25.001c4.393 0 7.993 3.6 7.993 7.994v36.225c0 4.422-3.6 8.021-7.993 8.021h-25.001c4.394 0 7.994-3.6 7.994-8.021v-36.225c0-4.394-3.6-7.994-7.994-7.994z" fill="#78c2a4" stroke="#78c2a4" stroke-miterlimit="10"/><path d="m58.987 357.08h25.001c4.393 0 7.993 3.601 7.993 7.994v36.225c0 4.394-3.6 7.994-7.993 7.994h-25.001c4.394 0 7.994-3.601 7.994-7.994v-36.225c0-4.393-3.6-7.994-7.994-7.994z" fill="#78c2a4" stroke="#78c2a4" stroke-miterlimit="10"/></g><path d="m126.053 373.662c-4.167 0-7.512-3.373-7.512-7.511 0-4.139 3.345-7.512 7.512-7.512h78.347c4.138 0 7.483 3.373 7.483 7.512 0 4.138-3.345 7.511-7.483 7.511zm0-206.667c-4.167 0-7.512-3.345-7.512-7.512 0-4.139 3.345-7.483 7.512-7.483h66.98c4.139 0 7.511 3.345 7.511 7.483 0 4.167-3.372 7.512-7.511 7.512zm0 34.071c-4.167 0-7.512-3.373-7.512-7.512s3.345-7.483 7.512-7.483h49.945c4.139 0 7.512 3.345 7.512 7.483 0 4.139-3.373 7.512-7.512 7.512zm0 69.249c-4.167 0-7.512-3.346-7.512-7.484 0-4.139 3.345-7.512 7.512-7.512h49.945c4.139 0 7.512 3.373 7.512 7.512s-3.373 7.484-7.512 7.484zm0 34.072c-4.167 0-7.512-3.346-7.512-7.512 0-4.139 3.345-7.484 7.512-7.484h49.945c4.139 0 7.512 3.346 7.512 7.484 0 4.166-3.373 7.512-7.512 7.512zm0 103.318c-4.167 0-7.512-3.345-7.512-7.482 0-4.139 3.345-7.512 7.512-7.512h49.945c4.139 0 7.512 3.373 7.512 7.512 0 4.138-3.373 7.482-7.512 7.482z" fill="#365e7d"/><path d="m263.416 276.834c-4.139 0-7.483-3.346-7.483-7.483s3.345-7.512 7.483-7.512h48.442l21.089-45.183c1.729-3.742 6.18-5.329 9.921-3.6 1.956.935 3.344 2.579 3.968 4.507l27.325 78.744 11.367-29.621c1.105-2.92 3.883-4.848 7.002-4.848h59.412c4.139 0 7.483 3.374 7.483 7.512s-3.344 7.483-7.483 7.483h-54.282l-16.837 43.964c-.766 1.984-2.41 3.629-4.563 4.393-3.912 1.333-8.164-.737-9.496-4.648l-28.062-80.869-15.051 32.199c-1.021 2.892-3.798 4.961-7.059 4.961h-53.176z" fill="#fff2bf"/></g></svg>